<?xml version="1.0" encoding="UTF-8"?>
<svg id="Layer_1" data-name="Layer 1" xmlns="http://www.w3.org/2000/svg" viewBox="0 0 200.13 200.13">
  <defs>
    <style>
      .cls-1 {
        fill: #fff;
      }

      .cls-2 {
        fill: #0f172a;
      }

      .cls-3 {
        fill: #3ecaff;
      }
    </style>
  </defs>
  <rect class="cls-2" x=".06" y=".06" width="200" height="200" rx="40" ry="40" transform="translate(-.11 .11) rotate(-.06)"/>
  <g>
    <path class="cls-3" d="m142.78,78.45l-14.14-2.83c-1.58-.32-2.82-1.55-3.14-3.14l-2.83-14.14c-.26-1.31.15-2.67,1.09-3.61l2.96-2.96c-2.15-1.62-4.45-3.05-6.88-4.27-.6.49-1.18,1.01-1.74,1.57-4.67,4.67-7,10.81-7.01,16.97,0,2.73.46,5.46,1.38,8.05.52,1.45.15,3.08-.94,4.17l-42.9,42.9c-.72.72-1.67,1.12-2.67,1.16,3.98,6.32,8.54,12.27,12.98,17.5.07-.58.11-1.17.11-1.77,0-.51-.1-1.22-.24-2.2-.17-1.24.25-2.49,1.13-3.38l42.9-42.9c1.09-1.09,2.72-1.46,4.17-.94,2.59.92,5.31,1.38,8.05,1.38,3.34,0,6.67-.69,9.76-2.07,0-3.24-.36-6.39-1.01-9.44-.35.02-.7,0-1.05-.06Z"/>
    <path class="cls-1" d="m126.82,96.93l-39.83,39.83c.04.41.08.81.08,1.29,0,3.15-.62,6.16-1.73,8.92,7.89,8.44,14.17,13.76,14.17,13.76,0,0,37.99-32.36,44.41-63.96-2.89.83-5.87,1.24-8.84,1.24-2.79,0-5.57-.37-8.26-1.09Z"/>
    <path class="cls-1" d="m64.36,114.14l39.83-39.83c-.72-2.7-1.09-5.48-1.09-8.26,0-7.79,2.84-15.62,8.5-21.73-3.89-1.08-7.99-1.67-12.22-1.66-25.08.03-45.39,20.38-45.37,45.46,0,8.62,2.93,17.52,7.28,26.01.59-.04,1.18-.07,1.78-.07.48,0,.88.05,1.29.08Z"/>
    <path class="cls-1" d="m132.82,68.31l8.26,1.65c-2.07-4.75-4.93-9.07-8.41-12.81l-1.74,1.74,1.89,9.43Z"/>
    <path class="cls-3" d="m167.05,66.05c0-3.63-.61-7.27-1.85-10.73h0c-.46-1.29-1.55-2.26-2.89-2.56-1.34-.3-2.74.1-3.71,1.07l-16.36,16.36-1.17-.23c1.19,2.73,2.11,5.59,2.75,8.56.95-.06,1.87-.47,2.56-1.16l12.56-12.56c.02.42.11.83.11,1.24,0,6.16-2.34,12.3-7.01,16.97-2.14,2.14-4.59,3.78-7.2,4.94,0,.02,0,.05,0,.07,0,2.89-.33,5.82-.92,8.75,5.05-1.44,9.82-4.14,13.78-8.1,6.22-6.22,9.35-14.45,9.35-22.63Z"/>
    <path class="cls-3" d="m63.07,154.05c-8.81-.02-15.98-7.18-16-16,.02-8.81,7.18-15.98,16-16,.51,0,1.21.1,2.21.24.23.03.47.04.7.03-1.68-2.67-3.26-5.41-4.69-8.19-12.41.92-22.21,11.28-22.21,23.92,0,13.24,10.75,23.99,23.99,23.99,10.09,0,18.72-6.25,22.27-15.08-2.05-2.19-4.2-4.58-6.38-7.15-.9,7.98-7.68,14.21-15.89,14.23Z"/>
    <path class="cls-3" d="m135.08,42.08c.42,0,.83.08,1.24.11l-9.6,9.6c2.14,1.61,4.13,3.41,5.95,5.36l14.62-14.62c.97-.97,1.38-2.37,1.07-3.71-.3-1.34-1.27-2.43-2.56-2.89-3.46-1.23-7.1-1.85-10.73-1.85-8.18,0-16.4,3.12-22.62,9.35-.29.29-.57.59-.85.9,2.87.8,5.63,1.87,8.24,3.19,4.4-3.62,9.81-5.43,15.23-5.43Z"/>
    <path class="cls-3" d="m63.07,130.06c-4.42.01-7.99,3.57-8,8,.01,4.42,3.57,7.99,8,8,4.42-.01,7.99-3.57,8-8-.01-4.42-3.57-7.99-8-8Zm0,8h0,0s0,0,0,0Z"/>
  </g>
</svg>